<svg id="Layer_1" data-name="Layer 1" xmlns="http://www.w3.org/2000/svg" viewBox="0 0 592.58 344.06"><defs><style>.cls-1,.cls-2{fill:none;stroke-linecap:round;stroke-miterlimit:10;}.cls-1{stroke:#f07b3f;stroke-width:54px;}.cls-2{stroke:#ffd460;stroke-width:52px;}.cls-3{fill:#ffd460;}</style></defs><path class="cls-1" d="M581,502.41a193.53,193.53,0,0,1-19.78,20,189.73,189.73,0,0,1-15.64,12.31A191.91,191.91,0,0,1,431.21,570,195.16,195.16,0,0,1,374,560.34c-45.2-14.9-74-43.82-87.62-59.64" transform="translate(-136.88 -252.94)"/><path class="cls-2" d="M162.88,406.65c32.41-15.07,79.18-37.49,134.78-66.67,87.62-46,127.35-72.1,149.28-56.52,23.55,16.74-4.44,60,24.63,98.55,28.34,37.56,87,41.27,121.71,36,68.15-10.32,104.16-64.35,110.18-73.7" transform="translate(-136.88 -252.94)"/><circle class="cls-3" cx="442.68" cy="43.98" r="39.72"/></svg>